<svg xmlns="http://www.w3.org/2000/svg" xmlns:xlink="http://www.w3.org/1999/xlink" width="167" height="578" viewBox="0 0 167 578"><svg width="167" height="53" viewBox="0 0 167 53" fill="none" id="air-icon" y="0"><g clip-path="url(#a)"><path d="M87.701 13.1a3.38 3.38 0 1 1-6.758 0c0-1.878 1.456-3.392 3.38-3.392 1.923.052 3.378 1.566 3.378 3.393zM73.77 19.939v.835s-1.612-2.088-5.043-2.088c-5.666 0-10.085 4.332-10.085 10.335 0 5.95 4.367 10.334 10.085 10.334 3.483 0 5.043-2.14 5.043-2.14v.887c0 .418.312.731.728.731h4.21V19.207h-4.21c-.416 0-.728.366-.728.731zm0 12.579c-.78 1.148-2.34 2.14-4.21 2.14-3.328 0-5.875-2.088-5.875-5.637 0-3.55 2.547-5.637 5.874-5.637 1.82 0 3.483 1.044 4.211 2.14v6.994zm8.058-13.31h4.99v19.625h-4.99V19.207zm74.549-.522c-3.431 0-5.043 2.088-5.043 2.088V9.76h-4.991v29.072h4.211c.416 0 .728-.365.728-.73v-.888s1.612 2.14 5.043 2.14c5.666 0 10.085-4.384 10.085-10.334 0-5.95-4.419-10.335-10.033-10.335zm-.832 15.92c-1.924 0-3.431-.992-4.211-2.14V25.47c.78-1.043 2.443-2.14 4.211-2.14 3.327 0 5.874 2.088 5.874 5.638 0 3.549-2.547 5.636-5.874 5.636zm-11.801-7.412v11.691h-4.991V27.767c0-3.236-1.04-4.54-3.847-4.54-1.507 0-3.067.782-4.055 1.93v13.675h-4.99V19.207h3.951c.415 0 .727.366.727.731v.835c1.456-1.514 3.379-2.088 5.303-2.088 2.183 0 4.003.627 5.459 1.88 1.767 1.46 2.443 3.34 2.443 6.628zm-29.996-8.508c-3.431 0-5.043 2.088-5.043 2.088V9.76h-4.991v29.072h4.211c.416 0 .728-.365.728-.73v-.888s1.612 2.14 5.043 2.14c5.666 0 10.085-4.384 10.085-10.334.052-5.95-4.367-10.335-10.033-10.335zm-.832 15.92c-1.924 0-3.431-.992-4.211-2.14V25.47c.78-1.043 2.443-2.14 4.211-2.14 3.327 0 5.874 2.088 5.874 5.638 0 3.549-2.547 5.636-5.874 5.636zm-13.517-15.92c1.508 0 2.288.261 2.288.261v4.645s-4.16-1.409-6.758 1.566v13.727h-4.991V19.207h4.21c.417 0 .729.366.729.731v.835c.935-1.096 2.963-2.088 4.522-2.088zm-51.83 18.372c-.26-.626-.52-1.304-.78-1.879-.416-.939-.832-1.826-1.196-2.661l-.052-.053A545.768 545.768 0 0 0 34.051 8.873l-.156-.313c-.416-.783-.832-1.618-1.247-2.453-.52-.94-1.04-1.931-1.872-2.871C29.113 1.148 26.721 0 24.174 0c-2.6 0-4.939 1.148-6.654 3.132-.78.94-1.352 1.93-1.872 2.87A106.7 106.7 0 0 1 14.4 8.455l-.156.314C10.241 16.598 6.342 24.53 2.755 32.36l-.052.105c-.364.835-.78 1.722-1.195 2.661-.26.575-.52 1.2-.78 1.88-.676 1.93-.884 3.757-.624 5.636.572 3.915 3.171 7.203 6.758 8.664 1.352.575 2.756.836 4.211.836.416 0 .936-.053 1.352-.105 1.715-.209 3.483-.783 5.198-1.774 2.132-1.2 4.16-2.923 6.447-5.429 2.287 2.506 4.367 4.228 6.446 5.428 1.716.992 3.483 1.566 5.199 1.775.416.052.936.105 1.351.105 1.456 0 2.912-.262 4.211-.836 3.64-1.461 6.187-4.801 6.759-8.664.416-1.827.208-3.653-.468-5.585zm-23.446 2.715c-2.807-3.55-4.627-6.89-5.25-9.708-.26-1.2-.313-2.245-.157-3.184a5.076 5.076 0 0 1 .832-2.192c.988-1.41 2.651-2.297 4.575-2.297 1.923 0 3.639.835 4.575 2.297.416.626.727 1.357.831 2.192.156.94.104 2.035-.155 3.184-.624 2.766-2.444 6.106-5.251 9.708zm20.742 2.453a7.751 7.751 0 0 1-4.73 6.106c-1.248.522-2.6.679-3.951.522-1.3-.156-2.6-.574-3.951-1.357-1.872-1.044-3.743-2.662-5.927-5.063 3.431-4.227 5.51-8.09 6.29-11.534.364-1.618.416-3.08.26-4.437-.207-1.305-.675-2.505-1.403-3.549-1.612-2.349-4.315-3.706-7.33-3.706-3.015 0-5.719 1.41-7.33 3.706-.728 1.044-1.196 2.244-1.404 3.55a10.878 10.878 0 0 0 .26 4.436c.78 3.444 2.911 7.359 6.29 11.587-2.131 2.4-4.055 4.019-5.926 5.063-1.352.782-2.651 1.2-3.951 1.357a8.284 8.284 0 0 1-3.951-.523 7.75 7.75 0 0 1-4.73-6.106c-.157-1.305-.053-2.61.467-4.071.156-.522.416-1.044.676-1.67.364-.836.78-1.723 1.196-2.61l.052-.105c3.587-7.776 7.434-15.71 11.437-23.434l.156-.314c.415-.783.831-1.618 1.247-2.4.416-.836.884-1.619 1.456-2.297 1.092-1.253 2.547-1.931 4.159-1.931 1.611 0 3.067.678 4.159 1.93.572.68 1.04 1.462 1.455 2.297.416.783.832 1.618 1.248 2.401l.156.313a693.542 693.542 0 0 1 11.385 23.488v.052c.416.835.78 1.774 1.196 2.61.26.626.52 1.148.676 1.67.416 1.357.571 2.662.364 4.019z" fill="#FF5A5F"></path></g><defs><clipPath id="a"><path fill="#fff" d="M0 0h166.409v52.142H0z"></path></clipPath></defs></svg><svg width="142" height="43" viewBox="0 0 142 43" fill="none" id="amazon-icon" y="53"><g clip-path="url(#a)" fill-rule="evenodd" clip-rule="evenodd"><path d="M87.813 33.319c-8.226 6.055-20.148 9.286-30.413 9.286-14.393 0-27.35-5.317-37.154-14.16-.77-.696-.08-1.643.845-1.102 10.579 6.148 23.66 9.847 37.171 9.847 9.113 0 19.138-1.883 28.355-5.791 1.393-.591 2.557.91 1.196 1.92z" fill="#F90"></path><path d="M91.232 29.41c-1.047-1.34-6.95-.633-9.6-.32-.806.1-.93-.602-.203-1.107 4.702-3.305 12.416-2.35 13.315-1.243.9 1.114-.234 8.837-4.652 12.524-.677.566-1.324.264-1.022-.486.992-2.474 3.216-8.02 2.162-9.367z" fill="#F90"></path><path d="M81.818 4.653V1.44c0-.486.37-.812.813-.812h14.4c.461 0 .83.332.83.812v2.751c-.005.462-.393 1.065-1.084 2.019l-7.461 10.64c2.773-.067 5.7.345 8.213 1.76.567.32.721.788.764 1.25v3.428c0 .467-.517 1.015-1.06.732-4.43-2.32-10.314-2.573-15.212.024-.5.271-1.023-.27-1.023-.738V20.05c0-.523.006-1.415.53-2.209L90.172 5.46H82.65c-.462 0-.831-.326-.831-.806zM29.291 24.697h-4.38c-.42-.031-.752-.345-.783-.745V1.496c0-.45.376-.807.844-.807h4.085a.825.825 0 0 1 .795.751v2.936h.08C30.998 1.539 33.001.216 35.7.216c2.742 0 4.455 1.323 5.687 4.16 1.06-2.837 3.47-4.16 6.05-4.16 1.837 0 3.846.756 5.072 2.455 1.386 1.89 1.102 4.634 1.102 7.04l-.006 14.173c0 .45-.376.813-.844.813h-4.374c-.438-.031-.789-.382-.789-.813V11.982c0-.947.086-3.31-.123-4.21-.327-1.507-1.306-1.932-2.576-1.932-1.06 0-2.169.708-2.618 1.84-.45 1.133-.407 3.028-.407 4.302v11.902c0 .45-.376.813-.844.813h-4.375c-.443-.031-.788-.382-.788-.813l-.007-11.902c0-2.504.413-6.19-2.698-6.19-3.149 0-3.026 3.593-3.026 6.19v11.902c0 .45-.375.813-.844.813M110.259.215c6.5 0 10.018 5.576 10.018 12.666 0 6.85-3.888 12.284-10.018 12.284-6.384 0-9.859-5.576-9.859-12.524 0-6.991 3.519-12.426 9.859-12.426zm.037 4.585c-3.229 0-3.432 4.394-3.432 7.133 0 2.745-.043 8.604 3.395 8.604 3.395 0 3.555-4.727 3.555-7.607 0-1.896-.08-4.16-.653-5.957-.493-1.563-1.473-2.173-2.865-2.173zM128.706 24.697h-4.362c-.438-.031-.789-.382-.789-.813l-.006-22.462c.037-.413.4-.733.844-.733h4.06a.838.838 0 0 1 .783.628v3.434h.08c1.226-3.07 2.945-4.536 5.97-4.536 1.966 0 3.882.708 5.114 2.647 1.146 1.797 1.146 4.818 1.146 6.99V23.99c-.049.394-.412.708-.844.708h-4.393c-.4-.031-.733-.326-.776-.708V11.791c0-2.455.283-6.05-2.742-6.05-1.066 0-2.046.715-2.532 1.798-.616 1.372-.697 2.739-.697 4.252v12.093c-.006.45-.388.813-.856.813M70.339 13.97c0 1.705.043 3.126-.82 4.64-.696 1.231-1.805 1.988-3.031 1.988-1.682 0-2.668-1.28-2.668-3.17 0-3.729 3.346-4.406 6.519-4.406v.948zm4.418 10.665c-.29.259-.709.277-1.035.105-1.455-1.206-1.72-1.766-2.514-2.917-2.403 2.45-4.11 3.181-7.222 3.181-3.69 0-6.555-2.27-6.555-6.818 0-3.551 1.922-5.97 4.67-7.152 2.378-1.046 5.7-1.23 8.238-1.52v-.566c0-1.04.08-2.27-.536-3.17-.53-.805-1.553-1.138-2.459-1.138-1.67 0-3.154.856-3.518 2.628-.074.394-.363.782-.764.8l-4.245-.455c-.357-.08-.758-.37-.653-.917C59.137 1.55 63.795 0 67.96 0c2.132 0 4.917.566 6.6 2.179 2.131 1.987 1.928 4.64 1.928 7.526v6.819c0 2.05.85 2.948 1.651 4.056.278.394.34.867-.018 1.163a185.99 185.99 0 0 0-3.358 2.905l-.006-.013M12.908 13.97c0 1.705.043 3.126-.82 4.64-.695 1.231-1.798 1.988-3.03 1.988-1.683 0-2.662-1.28-2.662-3.17 0-3.729 3.345-4.406 6.512-4.406v.948zm4.418 10.665c-.29.259-.709.277-1.035.105-1.454-1.206-1.713-1.766-2.514-2.917-2.403 2.45-4.104 3.181-7.221 3.181C2.87 25.005 0 22.735 0 18.187c0-3.551 1.929-5.97 4.67-7.152 2.379-1.046 5.7-1.23 8.238-1.52v-.566c0-1.04.08-2.27-.53-3.17-.536-.805-1.559-1.138-2.458-1.138-1.67 0-3.16.856-3.524 2.628-.074.394-.364.782-.758.8l-4.252-.455c-.357-.08-.751-.37-.653-.917C1.713 1.55 6.365 0 10.53 0c2.132 0 4.917.566 6.599 2.179 2.132 1.987 1.928 4.64 1.928 7.526v6.819c0 2.05.85 2.948 1.652 4.056.283.394.345.867-.013 1.163a185.64 185.64 0 0 0-3.358 2.905l-.012-.013" fill="#000"></path></g><defs><clipPath id="a"><path fill="#fff" d="M0 0h141.547v42.605H0z"></path></clipPath></defs></svg><svg width="74" height="74" viewBox="0 0 74 74" fill="none" id="box-icon" y="96"><path d="M36.998 41.008c-.4 0-.801-.092-1.171-.308L8.6 24.944a2.318 2.318 0 0 1-.833-3.176c.647-1.11 2.035-1.48 3.176-.833l26.054 15.078 25.9-14.985c1.11-.647 2.528-.247 3.176.833.647 1.11.247 2.528-.832 3.175L38.2 40.7c-.401.185-.802.308-1.203.308z" fill="#2639ED"></path><path d="M37 68.943a2.33 2.33 0 0 1-2.313-2.312V38.665A2.33 2.33 0 0 1 37 36.352a2.33 2.33 0 0 1 2.313 2.313v27.966A2.33 2.33 0 0 1 37 68.943z" fill="#2639ED"></path><path d="M36.997 70.146c-2.806 0-5.489-.647-7.524-1.788l-16.465-9.126c-4.47-2.467-7.986-8.418-7.986-13.536V28.244c0-5.118 3.515-11.038 7.986-13.536l16.465-9.126c4.194-2.344 10.792-2.344 15.016 0l16.465 9.126c4.47 2.467 7.986 8.418 7.986 13.536v11.285a2.33 2.33 0 0 1-2.313 2.312 2.33 2.33 0 0 1-2.312-2.312V28.244c0-3.392-2.62-7.831-5.58-9.466L42.268 9.652c-2.806-1.573-7.708-1.573-10.514 0L15.29 18.778c-2.99 1.665-5.58 6.074-5.58 9.466v17.452c0 3.391 2.62 7.832 5.58 9.466l16.465 9.126c2.713 1.51 7.832 1.51 10.514 0a2.321 2.321 0 0 1 3.145.895 2.32 2.32 0 0 1-.894 3.144c-2.035 1.172-4.718 1.82-7.523 1.82z" fill="#2639ED"></path><path d="M59.2 68.296c-6.722 0-12.18-5.458-12.18-12.18 0-6.721 5.458-12.178 12.18-12.178 6.722 0 12.18 5.457 12.18 12.179 0 6.721-5.458 12.179-12.18 12.179zm0-19.734c-4.163 0-7.554 3.392-7.554 7.555 0 4.162 3.392 7.554 7.554 7.554 4.162 0 7.554-3.392 7.554-7.554 0-4.163-3.392-7.554-7.554-7.554z" fill="#2639ED"></path><path d="M70.915 70.146a2.287 2.287 0 0 1-1.634-.678l-3.083-3.084a2.327 2.327 0 0 1 0-3.269 2.326 2.326 0 0 1 3.268 0l3.083 3.084a2.327 2.327 0 0 1 0 3.269 2.287 2.287 0 0 1-1.634.678z" fill="#2639ED"></path></svg><svg width="74" height="74" viewBox="0 0 74 74" fill="none" id="chart-icon" y="170"><path d="M31.173 55.962H19.488a2.33 2.33 0 0 1-2.313-2.313V37.862c0-3.206 2.62-5.827 5.828-5.827h8.17a2.33 2.33 0 0 1 2.313 2.312v19.27c0 1.296-1.048 2.345-2.313 2.345zM21.8 51.337h7.06V36.69h-5.857c-.648 0-1.203.524-1.203 1.202v13.444z" fill="#00DA71"></path><path d="M42.826 55.962H31.14a2.33 2.33 0 0 1-2.312-2.313V23.864c0-3.207 2.62-5.828 5.827-5.828h4.687c3.207 0 5.828 2.621 5.828 5.828v29.785c-.031 1.264-1.049 2.313-2.344 2.313zm-9.342-4.625h7.06V23.864c0-.648-.524-1.203-1.202-1.203h-4.687c-.647 0-1.202.524-1.202 1.203v27.473h.03z" fill="#00DA71"></path><path d="M54.515 55.962H42.83a2.33 2.33 0 0 1-2.312-2.313V39.62a2.33 2.33 0 0 1 2.312-2.312H51c3.207 0 5.828 2.621 5.828 5.828v10.514a2.31 2.31 0 0 1-2.313 2.313zm-9.373-4.625h7.06v-8.202c0-.648-.523-1.203-1.202-1.203h-5.858v9.405z" fill="#00DA71"></path><path d="M46.25 70.146h-18.5c-16.742 0-23.896-7.154-23.896-23.896v-18.5c0-16.742 7.154-23.896 23.896-23.896h18.5c16.742 0 23.896 7.154 23.896 23.896v18.5c0 16.742-7.154 23.896-23.896 23.896zM27.75 8.479c-14.214 0-19.27 5.057-19.27 19.271v18.5c0 14.214 5.056 19.27 19.27 19.27h18.5c14.214 0 19.27-5.056 19.27-19.27v-18.5c0-14.214-5.056-19.27-19.27-19.27h-18.5z" fill="#00DA71"></path></svg><svg width="74" height="74" viewBox="0 0 74 74" fill="none" id="code-icon" y="244"><path d="M27.753 54.729c-.34 0-.71-.093-1.018-.247a15.47 15.47 0 0 1-5.889-5.21 5.449 5.449 0 0 1 0-6.075 15.142 15.142 0 0 1 5.89-5.18c1.14-.586 2.528-.092 3.114 1.048.585 1.141.123 2.529-1.049 3.115a10.614 10.614 0 0 0-4.1 3.638.892.892 0 0 0 0 .956 10.614 10.614 0 0 0 4.1 3.638 2.352 2.352 0 0 1 1.049 3.114 2.472 2.472 0 0 1-2.097 1.203zM46.895 54.729a2.287 2.287 0 0 1-2.066-1.264c-.586-1.141-.123-2.529 1.048-3.115a10.614 10.614 0 0 0 4.101-3.638.892.892 0 0 0 0-.956 10.614 10.614 0 0 0-4.1-3.638 2.352 2.352 0 0 1-1.049-3.114 2.352 2.352 0 0 1 3.114-1.048 15.47 15.47 0 0 1 5.89 5.21 5.448 5.448 0 0 1 0 6.075 15.142 15.142 0 0 1-5.89 5.18c-.37.215-.709.308-1.048.308z" fill="#FF007A"></path><path d="M46.25 70.146h-18.5c-16.742 0-23.896-7.154-23.896-23.896v-18.5c0-16.742 7.154-23.896 23.896-23.896h18.5c16.742 0 23.896 7.154 23.896 23.896v18.5c0 16.742-7.154 23.896-23.896 23.896zM27.75 8.479c-14.214 0-19.27 5.057-19.27 19.271v18.5c0 14.214 5.056 19.27 19.27 19.27h18.5c14.214 0 19.27-5.056 19.27-19.27v-18.5c0-14.214-5.056-19.27-19.27-19.27h-18.5z" fill="#FF007A"></path><path d="M6.877 27.01a2.33 2.33 0 0 1-2.312-2.313 2.31 2.31 0 0 1 2.312-2.312l59.262-.03a2.33 2.33 0 0 1 2.313 2.312 2.31 2.31 0 0 1-2.313 2.312l-59.262.031z" fill="#FF007A"></path></svg><svg width="36" height="36" viewBox="0 0 36 36" fill="none" id="fb-icon" y="318"><path d="M18 36c9.941 0 18-8.059 18-18S27.941 0 18 0 0 8.059 0 18s8.059 18 18 18z" fill="#3B5998"></path><path d="M22.525 18.705h-3.212v11.767h-4.866V18.704h-2.314v-4.136h2.314v-2.676c0-1.913.91-4.91 4.91-4.91l3.604.015v4.014h-2.615c-.43 0-1.032.214-1.032 1.127v2.434h3.636l-.425 4.132z" fill="#fff"></path></svg><svg width="151" height="50" viewBox="0 0 151 50" fill="none" id="google-icon" y="354"><g clip-path="url(#a)"><path d="M145.796 30.177l4.174 2.783c-1.354 1.995-4.595 5.42-10.198 5.42-6.957 0-12.139-5.384-12.139-12.231 0-7.288 5.237-12.231 11.553-12.231 6.354 0 9.466 5.053 10.473 7.781l.549 1.392-16.368 6.774c1.245 2.454 3.186 3.699 5.932 3.699 2.747 0 4.651-1.355 6.024-3.387zm-12.835-4.413l10.931-4.54c-.604-1.52-2.399-2.6-4.541-2.6-2.728 0-6.518 2.416-6.39 7.14z" fill="#FF302F"></path><path d="M119.742 1.45h5.273v35.812h-5.273V1.45z" fill="#20B15A"></path><path d="M111.429 14.87h5.09v21.752c0 9.026-5.328 12.743-11.626 12.743-5.932 0-9.503-3.992-10.84-7.232l4.67-1.941c.842 1.995 2.874 4.357 6.17 4.357 4.046 0 6.536-2.508 6.536-7.195v-1.758h-.183c-1.208 1.465-3.515 2.783-6.445 2.783-6.115 0-11.718-5.328-11.718-12.194 0-6.902 5.603-12.285 11.718-12.285 2.912 0 5.237 1.3 6.445 2.728h.183V14.87zm.367 11.315c0-4.32-2.875-7.47-6.537-7.47-3.698 0-6.81 3.15-6.81 7.47 0 4.266 3.112 7.36 6.81 7.36 3.662.019 6.537-3.094 6.537-7.36z" fill="#3686F7"></path><path d="M64.136 26.094c0 7.049-5.492 12.23-12.23 12.23s-12.23-5.2-12.23-12.23c0-7.086 5.492-12.25 12.23-12.25s12.23 5.164 12.23 12.25zm-5.346 0c0-4.395-3.186-7.416-6.884-7.416-3.699 0-6.884 3.021-6.884 7.416 0 4.357 3.185 7.415 6.884 7.415 3.698 0 6.884-3.058 6.884-7.415z" fill="#FF302F"></path><path d="M90.85 26.149c0 7.049-5.493 12.23-12.23 12.23-6.739 0-12.232-5.181-12.232-12.23 0-7.086 5.493-12.231 12.231-12.231 6.738 0 12.23 5.127 12.23 12.23zm-5.365 0c0-4.395-3.186-7.416-6.884-7.416-3.699 0-6.885 3.021-6.885 7.416 0 4.357 3.186 7.415 6.885 7.415 3.717 0 6.884-3.076 6.884-7.415z" fill="#FFBA40"></path><path d="M19.572 33.015c-7.672 0-13.677-6.189-13.677-13.86 0-7.672 6.005-13.86 13.677-13.86 4.137 0 7.159 1.629 9.392 3.716l3.68-3.68C29.532 2.347 25.377.076 19.573.076 9.062.076.219 8.645.219 19.155c0 10.509 8.843 19.078 19.353 19.078 5.675 0 9.96-1.868 13.31-5.347 3.443-3.442 4.505-8.275 4.505-12.194 0-1.226-.147-2.49-.312-3.423H19.572v5.09H32.04c-.366 3.185-1.373 5.364-2.856 6.847-1.794 1.813-4.632 3.809-9.612 3.809z" fill="#3686F7"></path></g><defs><clipPath id="a"><path fill="#fff" d="M0 0h150.483v49.377H0z"></path></clipPath></defs></svg><svg width="36" height="36" viewBox="0 0 36 36" fill="none" id="linkedin-icon" y="404"><g clip-path="url(#a)"><path d="M18 36c9.941 0 18-8.06 18-18 0-9.941-8.059-18-18-18S0 8.059 0 18c0 9.94 8.059 18 18 18z" fill="#007AB9"></path><path d="M28.755 19.448v7.421h-4.303v-6.923c0-1.739-.62-2.926-2.179-2.926-1.189 0-1.895.8-2.207 1.573-.113.277-.142.66-.142 1.049v7.227H15.62s.058-11.726 0-12.94h4.303v1.833c-.008.015-.02.029-.028.043h.028v-.043c.572-.88 1.592-2.137 3.878-2.137 2.83 0 4.953 1.85 4.953 5.823zM11.12 7.691c-1.472 0-2.435.966-2.435 2.236 0 1.242.935 2.236 2.378 2.236h.028c1.501 0 2.434-.994 2.434-2.236-.028-1.27-.933-2.236-2.405-2.236zM8.94 26.869h4.302V13.93H8.941v12.94z" fill="#F1F2F2"></path></g><defs><clipPath id="a"><path fill="#fff" d="M0 0h36v36H0z"></path></clipPath></defs></svg><svg width="36" height="36" viewBox="0 0 36 36" fill="none" id="twitter-icon" y="440"><g clip-path="url(#a)"><path d="M18 36c9.941 0 18-8.06 18-18 0-9.941-8.059-18-18-18C8.06 0 0 8.059 0 18c0 9.94 8.06 18 18 18z" fill="#55ACEE"></path><path d="M29.026 12.936a8.582 8.582 0 0 1-2.472.677 4.314 4.314 0 0 0 1.893-2.38 8.617 8.617 0 0 1-2.733 1.044 4.303 4.303 0 0 0-7.332 3.925 12.213 12.213 0 0 1-8.868-4.497 4.302 4.302 0 0 0 1.331 5.744 4.272 4.272 0 0 1-1.948-.538v.055a4.305 4.305 0 0 0 3.451 4.218 4.288 4.288 0 0 1-1.943.075 4.307 4.307 0 0 0 4.02 2.987 8.633 8.633 0 0 1-6.37 1.782 12.17 12.17 0 0 0 6.594 1.933c7.914 0 12.242-6.556 12.242-12.242 0-.186-.004-.372-.013-.556a8.723 8.723 0 0 0 2.148-2.227z" fill="#F1F2F2"></path></g><defs><clipPath id="a"><path fill="#fff" d="M0 0h36v36H0z"></path></clipPath></defs></svg><svg width="167" height="28" viewBox="0 0 167 28" fill="none" id="uber-icon" y="476"><g clip-path="url(#a)"><path d="M77.143 11.167c-2.466 0-4.216 1.946-4.216 4.933v10.957H69.16V7.77h3.72v2.356a5.065 5.065 0 0 1 1.905-1.862 5.014 5.014 0 0 1 2.578-.63h1.353v3.533h-1.574zM66.56 17.414c0-5.752-4.059-10.053-9.552-10.053a9.776 9.776 0 0 0-3.776.787 9.842 9.842 0 0 0-3.186 2.19 9.933 9.933 0 0 0-2.108 3.254 10 10 0 0 0-.707 3.822c0 5.747 4.397 10.093 10.134 10.093a9.93 9.93 0 0 0 4.625-1.044 10.018 10.018 0 0 0 3.628-3.075l-2.733-2.019a6.68 6.68 0 0 1-2.418 2.087 6.62 6.62 0 0 1-3.102.719 6.383 6.383 0 0 1-4.171-1.58 6.48 6.48 0 0 1-2.143-3.94h15.518l-.009-1.241zm-15.428-1.769c.672-2.941 3.004-4.933 5.831-4.933 2.828 0 5.155 1.992 5.786 4.933H51.131zM35.302 7.361a9.458 9.458 0 0 0-3.665.743 9.52 9.52 0 0 0-3.1 2.108V.568h-3.765v26.49h3.72V24.61a9.634 9.634 0 0 0 6.82 2.896 9.922 9.922 0 0 0 3.888-.704 9.986 9.986 0 0 0 3.314-2.169 10.08 10.08 0 0 0 2.222-3.295 10.146 10.146 0 0 0 0-7.81 10.08 10.08 0 0 0-2.221-3.294 9.987 9.987 0 0 0-3.315-2.17 9.921 9.921 0 0 0-3.889-.704h-.009zm-.27 16.755a6.586 6.586 0 0 1-3.692-1.112 6.667 6.667 0 0 1-2.454-2.995 6.73 6.73 0 0 1-.386-3.864 6.696 6.696 0 0 1 1.812-3.428 6.607 6.607 0 0 1 3.398-1.832 6.574 6.574 0 0 1 3.834.385 6.636 6.636 0 0 1 2.973 2.47 6.718 6.718 0 0 1 1.108 3.72 6.677 6.677 0 0 1-.5 2.543 6.632 6.632 0 0 1-1.43 2.156 6.572 6.572 0 0 1-2.14 1.438 6.53 6.53 0 0 1-2.523.5v.019zm-24.127-.182c3.634 0 6.457-2.81 6.457-7.02V.568h3.901v26.49h-3.856v-2.506a9.577 9.577 0 0 1-3.175 2.19 9.51 9.51 0 0 1-3.774.752c-5.606 0-9.921-4.12-9.921-10.367V.568H4.51v16.368c0 4.233 2.705 6.998 6.395 6.998z" fill="#262626"></path><path d="M88.084.568h18.431v4.547H93.063v6.456h13.078v4.393H93.063v6.565h13.452v4.547H88.084V.568zm69.333 26.985c5.65 0 8.834-2.728 8.834-6.475 0-2.668-1.885-4.66-5.831-5.524l-4.171-.86c-2.422-.454-3.184-.908-3.184-1.818 0-1.177 1.168-1.9 3.319-1.9 2.331 0 4.059.632 4.51 2.805h4.888c-.266-4.092-3.184-6.793-9.101-6.793-5.114 0-8.703 2.128-8.703 6.252 0 2.85 1.975 4.706 6.237 5.61l4.663 1.087c1.84.364 2.331.864 2.331 1.633 0 1.223-1.389 1.991-3.635 1.991-2.823 0-4.437-.632-5.064-2.805h-4.916c.717 4.083 3.721 6.797 9.823 6.797zm-11.243-.496h-5.29c-3.319 0-5.159-2.082-5.159-4.71V11.935h-3.721V7.498h3.739v-5.57h4.915v5.57h5.516v4.437h-5.516v9.143c0 1.042.717 1.542 1.84 1.542h3.676v4.437zm-21.196-19.55V9.27a9.497 9.497 0 0 0-6.192-2.274 10.12 10.12 0 0 0-3.967.72 10.19 10.19 0 0 0-3.381 2.213c-.97.957-1.74 2.1-2.266 3.361a10.352 10.352 0 0 0 0 7.968 10.28 10.28 0 0 0 2.266 3.361 10.19 10.19 0 0 0 3.381 2.214 10.12 10.12 0 0 0 3.967.719 9.467 9.467 0 0 0 6.192-2.273v1.768h4.902V7.498l-4.902.009zm-5.786 15.754a5.893 5.893 0 0 1-3.313-.975 5.968 5.968 0 0 1-2.214-2.67 6.03 6.03 0 0 1-.365-3.46 6 6 0 0 1 1.609-3.079 5.917 5.917 0 0 1 3.036-1.654 5.884 5.884 0 0 1 3.436.33 5.944 5.944 0 0 1 2.672 2.204 6.014 6.014 0 0 1 1.002 3.33 5.957 5.957 0 0 1-1.701 4.218 5.859 5.859 0 0 1-1.912 1.294c-.716.3-1.484.454-2.259.453l.009.009z" fill="#5FB709"></path></g><defs><clipPath id="a"><path fill="#fff" d="M0 0h166.409v27.735H0z"></path></clipPath></defs></svg><svg width="74" height="74" viewBox="0 0 74 74" fill="none" id="wallet-icon" y="504"><path d="M54.698 70.146H19.302c-7.678 0-13.906-6.229-13.906-13.906V35.49c0-7.678 6.228-13.907 13.906-13.907h35.396c7.678 0 13.906 6.229 13.906 13.906v4.44a2.33 2.33 0 0 1-2.312 2.313h-6.229c-1.079 0-2.066.4-2.775 1.14l-.03.031c-.864.833-1.265 1.974-1.172 3.145.185 2.035 2.127 3.67 4.347 3.67h5.859a2.33 2.33 0 0 1 2.312 2.312v3.67c0 7.707-6.228 13.936-13.906 13.936zM19.302 26.208c-5.119 0-9.281 4.163-9.281 9.281V56.24c0 5.118 4.162 9.28 9.28 9.28h35.397c5.119 0 9.281-4.162 9.281-9.28v-1.357h-3.546c-4.655 0-8.602-3.453-8.972-7.893-.247-2.528.678-5.026 2.528-6.845 1.604-1.634 3.762-2.528 6.074-2.528h3.916v-2.128c0-5.118-4.162-9.28-9.28-9.28H19.301z" fill="#F90"></path><path d="M7.708 40.577a2.33 2.33 0 0 1-2.312-2.313v-14.09c0-4.595 2.898-8.757 7.184-10.391l24.482-9.25c2.528-.956 5.334-.617 7.523.925a8.152 8.152 0 0 1 3.515 6.721v11.717a2.33 2.33 0 0 1-2.313 2.312 2.33 2.33 0 0 1-2.312-2.312V12.179c0-1.171-.555-2.25-1.542-2.929-.986-.678-2.158-.832-3.268-.4L14.183 18.1c-2.497.955-4.193 3.391-4.193 6.073v14.091c.03 1.295-1.017 2.313-2.282 2.313zM60.435 54.884c-4.656 0-8.603-3.453-8.973-7.893-.246-2.56.679-5.057 2.529-6.876 1.572-1.604 3.73-2.498 6.043-2.498h6.413c3.053.093 5.396 2.498 5.396 5.458v6.351a5.457 5.457 0 0 1-5.303 5.458h-6.105zm5.95-12.642h-6.32c-1.08 0-2.066.401-2.775 1.141-.894.863-1.326 2.035-1.203 3.207.185 2.035 2.128 3.669 4.348 3.669h6.043c.401 0 .771-.37.771-.833v-6.351c0-.463-.37-.802-.863-.833z" fill="#F90"></path><path d="M43.167 39.313H21.583A2.33 2.33 0 0 1 19.271 37a2.33 2.33 0 0 1 2.312-2.313h21.584A2.33 2.33 0 0 1 45.479 37a2.33 2.33 0 0 1-2.312 2.313z" fill="#F90"></path></svg></svg>