<svg width="18" height="18" viewBox="0 0 18 18" fill="none" xmlns="http://www.w3.org/2000/svg">
<path fill-rule="evenodd" clip-rule="evenodd" d="M9.95015 8.99997L17.75 16.7998C17.8953 16.9451 17.9846 17.1345 17.9982 17.3263C18.0118 17.5181 17.9487 17.6966 17.8227 17.8226C17.6967 17.9486 17.5182 18.0118 17.3263 17.9981C17.1345 17.9845 16.9452 17.8952 16.7999 17.75L9.00001 9.9501L1.20012 17.75C1.05485 17.8953 0.865483 17.9845 0.67367 17.9982C0.481857 18.0118 0.303315 17.9487 0.177319 17.8227C0.0513239 17.6967 -0.0118036 17.5181 0.00182465 17.3263C0.0154529 17.1345 0.104721 16.9451 0.249989 16.7999L8.04988 8.99997L0.250035 1.20012C0.104766 1.05485 0.0154996 0.865483 0.00187134 0.67367C-0.0117569 0.481857 0.0513697 0.303315 0.177365 0.177319C0.303361 0.0513239 0.481904 -0.0118036 0.673717 0.00182464C0.865529 0.0154529 1.0549 0.104721 1.20017 0.249989L9.00001 8.04983L16.7998 0.250004C16.9451 0.104735 17.1345 0.0154668 17.3263 0.00183855C17.5181 -0.0117897 17.6967 0.0513394 17.8226 0.177335C17.9486 0.30333 18.0118 0.481871 17.9981 0.673684C17.9845 0.865496 17.8953 1.05487 17.75 1.20014L9.95015 8.99997Z" fill="white"/>
</svg>
