<svg width="21" height="20" viewBox="0 0 21 20" fill="none" xmlns="http://www.w3.org/2000/svg">
<path fill-rule="evenodd" clip-rule="evenodd" d="M10.3846 3.13222C11.2711 1.27889 13.1415 0 15.3036 0C18.3206 0 20.7692 2.48889 20.7692 5.55556C20.7692 8.79778 19.147 11.7711 17.1783 14.1611C14.286 17.6733 10.6699 19.9189 10.6699 19.9189C10.495 20.0267 10.2742 20.0267 10.0993 19.9189C10.0993 19.9189 6.48328 17.6733 3.59089 14.1611C1.62219 11.7711 0 8.79778 0 5.55556C0 2.48889 2.44858 0 5.46559 0C7.62777 0 9.4981 1.27889 10.3846 3.13222ZM19.6761 5.55556C19.6761 3.10222 17.7172 1.11111 15.3036 1.11111C12.89 1.11111 10.9312 3.10222 10.9312 5.55556V5.57667C10.9191 5.87333 10.6787 6.11111 10.3846 6.11111C10.0851 6.11111 9.84243 5.86667 9.83806 5.56333V5.55556C9.83806 3.10222 7.87919 1.11111 5.46559 1.11111C3.05198 1.11111 1.09312 3.10222 1.09312 5.55556C1.09312 8.53555 2.61911 11.2511 4.42822 13.4478C6.72704 16.2378 9.50028 18.1956 10.3846 18.7844C11.2689 18.1956 14.0422 16.2378 16.341 13.4478C18.1501 11.2511 19.6761 8.53555 19.6761 5.55556Z" fill="white"/>
</svg>
