<svg width="23" height="20" viewBox="0 0 23 20" fill="none" xmlns="http://www.w3.org/2000/svg">
<path d="M0.796681 1.504H21.4309C21.612 1.504 21.7857 1.43025 21.9138 1.29898C22.0418 1.1677 22.1138 0.989656 22.1138 0.804004C22.1138 0.618353 22.0418 0.440305 21.9138 0.309029C21.7857 0.177754 21.612 0.104004 21.4309 0.104004H0.796681C0.615562 0.104004 0.441861 0.177754 0.31379 0.309029C0.185719 0.440305 0.11377 0.618353 0.11377 0.804004C0.11377 0.989656 0.185719 1.1677 0.31379 1.29898C0.441861 1.43025 0.615562 1.504 0.796681 1.504Z" fill="white"/>
<path d="M21.4309 9.18188H0.796681C0.615562 9.18188 0.441861 9.25563 0.31379 9.38691C0.185719 9.51818 0.11377 9.69623 0.11377 9.88188C0.11377 10.0675 0.185719 10.2456 0.31379 10.3769C0.441861 10.5081 0.615562 10.5819 0.796681 10.5819H21.4309C21.612 10.5819 21.7857 10.5081 21.9138 10.3769C22.0418 10.2456 22.1138 10.0675 22.1138 9.88188C22.1138 9.69623 22.0418 9.51818 21.9138 9.38691C21.7857 9.25563 21.612 9.18188 21.4309 9.18188Z" fill="white"/>
<path d="M21.4309 18.2959H0.796681C0.615562 18.2959 0.441861 18.3696 0.31379 18.5009C0.185719 18.6322 0.11377 18.8102 0.11377 18.9959C0.11377 19.1815 0.185719 19.3596 0.31379 19.4909C0.441861 19.6221 0.615562 19.6959 0.796681 19.6959H21.4309C21.612 19.6959 21.7857 19.6221 21.9138 19.4909C22.0418 19.3596 22.1138 19.1815 22.1138 18.9959C22.1138 18.8102 22.0418 18.6322 21.9138 18.5009C21.7857 18.3696 21.612 18.2959 21.4309 18.2959Z" fill="white"/>
</svg>
