<svg width="76" height="32" viewBox="0 0 76 32" fill="none" xmlns="http://www.w3.org/2000/svg">
<path d="M37.8649 2.29419C34.6908 2.29419 32.0414 4.44895 31.2991 7.35153H32.9117C33.6157 5.29817 35.5739 3.82787 37.8649 3.82787C39.1192 3.82787 40.2583 4.25882 41.167 4.99397H43.2917C42.0502 3.34622 40.0791 2.29419 37.8649 2.29419Z" fill="white"/>
<path d="M31.2863 10.647C31.7854 12.5863 33.1293 14.196 34.9211 15.0452V13.2834C33.9868 12.6496 33.2701 11.7244 32.8989 10.647H31.2863Z" fill="white"/>
<path d="M40.8088 13.2834V15.0452C42.5879 14.196 43.9446 12.5863 44.4437 10.647H42.8311C42.4599 11.737 41.7432 12.6496 40.8088 13.2834Z" fill="white"/>
<path d="M37.865 1.53368C40.5272 1.53368 42.8694 2.91526 44.2132 4.98129H45.9923C44.4948 2.04068 41.4103 0 37.865 0C34.3069 0 31.2351 2.028 29.7377 4.98129H31.5167C32.8478 2.91526 35.2028 1.53368 37.865 1.53368Z" fill="white"/>
<path d="M46.7988 10.647H45.2118C44.4566 13.9805 41.4489 16.4648 37.8524 16.4648C35.1774 16.4648 32.8352 15.0832 31.4913 13.0045H29.7251C31.2226 15.9578 34.3071 17.9985 37.8652 17.9985C42.3064 17.9985 46.0181 14.8297 46.7988 10.647Z" fill="white"/>
<path d="M30.992 12.0793C30.6593 11.3441 30.4417 10.5582 30.3521 9.7217H35.8428V15.4128C36.4828 15.6156 37.1611 15.717 37.865 15.717C38.569 15.717 39.2473 15.6156 39.8873 15.4128V9.7217H46.9267C46.9395 9.48087 46.9523 9.25272 46.9523 9.0119C46.9523 8.77107 46.9395 8.53025 46.9267 8.3021H39.8873V7.35147H46.7987C46.7091 6.85714 46.5683 6.37549 46.4019 5.91919H38.3386V14.1706C38.185 14.1833 38.0314 14.196 37.865 14.196C37.7115 14.196 37.5451 14.1833 37.3915 14.1706V5.91919H35.8428V8.28942H30.3521C30.4289 7.45287 30.6593 6.65434 30.992 5.91919H29.3154C28.957 6.88249 28.765 7.92184 28.765 8.99922C28.765 10.0766 28.957 11.116 29.3154 12.0793H30.992Z" fill="white"/>
<path d="M26.5961 31.9873H28.7719V25.2442H37.5903V23.3049H26.5961V31.9873Z" fill="white"/>
<path d="M36.2594 26.6765H29.4248V28.6158H36.2594V26.6765Z" fill="white"/>
<path d="M50.7734 27.6525C50.7734 30.0481 52.7445 32 55.1635 32H62.6764V30.0608H55.1635C53.9476 30.0608 52.9493 28.8693 52.9493 27.6652C52.9493 26.4611 53.9348 25.2696 55.1635 25.2696H62.6764V23.3303H55.1635C52.7445 23.305 50.7734 25.2569 50.7734 27.6525Z" fill="white"/>
<path d="M53.7681 27.6525C53.7681 28.2102 54.216 28.6285 54.7792 28.6285H61.345V26.6892H54.7792C54.216 26.6766 53.7681 27.0948 53.7681 27.6525Z" fill="white"/>
<path d="M2.17582 23.3049H0V31.9873H2.17582V28.6158H8.80565V26.6765H2.17582V23.3049Z" fill="white"/>
<path d="M11.647 23.3049H9.47119V31.9873H11.647V23.3049Z" fill="white"/>
<path d="M71.6097 27.6904H66.5029V29.6297H71.6097C72.8256 29.6297 73.8239 30.7831 73.8239 31.9873H75.9997C75.9997 29.5917 74.0287 27.6904 71.6097 27.6904Z" fill="white"/>
<path d="M73.3891 27.5003H75.5649C75.4881 25.1681 73.5554 23.2922 71.1876 23.2922H63.6747V31.9746H65.8505V25.2315H71.1876C72.3651 25.2442 73.3251 26.3596 73.3891 27.5003Z" fill="white"/>
<path d="M50.0822 23.3049H47.9064V31.9873H50.0822V23.3049Z" fill="white"/>
<path d="M38.4353 23.3049V31.9873H40.6111V25.8146L47.2537 31.455V28.8186L40.6111 23.3049H38.4353Z" fill="white"/>
<path d="M12.3765 27.6525C12.3765 30.0481 14.3475 32 16.7665 32H18.7631V30.0608H16.7665C15.5506 30.0608 14.5523 28.8693 14.5523 27.6652C14.5523 26.4611 15.5378 25.2696 16.7665 25.2696H18.7631V23.3303H16.7665C14.3475 23.305 12.3765 25.2569 12.3765 27.6525Z" fill="white"/>
<path d="M21.4382 23.3049H19.4415V25.2442H21.4382C22.6541 25.2442 23.6524 26.4357 23.6524 27.6398C23.6524 28.8439 22.6669 30.0354 21.4382 30.0354H19.4415V31.9747H21.4382C23.8572 31.9747 25.8282 30.0227 25.8282 27.6271C25.8154 25.2569 23.8572 23.3049 21.4382 23.3049Z" fill="white"/>
</svg>
