<svg width="22" height="20" viewBox="0 0 22 20" fill="none" xmlns="http://www.w3.org/2000/svg">
<g clip-path="url(#clip0_120_7703)">
<path fill-rule="evenodd" clip-rule="evenodd" d="M8.47462 16.4706C7.49989 16.4706 6.70881 17.2612 6.70881 18.2353C6.70881 19.2094 7.49989 20 8.47462 20C9.44934 20 10.2404 19.2094 10.2404 18.2353C10.2404 17.2612 9.44934 16.4706 8.47462 16.4706ZM20.2467 16.4706C19.2719 16.4706 18.4808 17.2612 18.4808 18.2353C18.4808 19.2094 19.2719 20 20.2467 20C21.2214 20 22.0125 19.2094 22.0125 18.2353C22.0125 17.2612 21.2214 16.4706 20.2467 16.4706ZM8.47462 17.6471C8.79953 17.6471 9.06322 17.9106 9.06322 18.2353C9.06322 18.56 8.79953 18.8235 8.47462 18.8235C8.14971 18.8235 7.88602 18.56 7.88602 18.2353C7.88602 17.9106 8.14971 17.6471 8.47462 17.6471ZM20.2467 17.6471C20.5716 17.6471 20.8353 17.9106 20.8353 18.2353C20.8353 18.56 20.5716 18.8235 20.2467 18.8235C19.9217 18.8235 19.658 18.56 19.658 18.2353C19.658 17.9106 19.9217 17.6471 20.2467 17.6471ZM9.29631 12.9412L9.44463 13.6494C9.50114 13.9224 9.74129 14.1176 10.0203 14.1176H17.8922C18.2172 14.1176 18.4808 14.3812 18.4808 14.7059C18.4808 15.0306 18.2172 15.2941 17.8922 15.2941H10.0203C9.18447 15.2941 8.46285 14.7082 8.29215 13.8894C7.7577 11.3247 6.27325 4.20941 5.7388 1.64471C5.68229 1.37176 5.44214 1.17647 5.16315 1.17647H2.5886C2.26369 1.17647 2 0.912941 2 0.588235C2 0.263529 2.26369 0 2.5886 0H5.16315C5.99896 0 6.72059 0.585882 6.89128 1.40471L9.05145 11.7647H19.4615C19.7499 11.7647 19.9947 11.5565 20.043 11.2729C20.2667 9.92706 20.6669 7.52588 20.8918 6.18C21.0342 5.32941 21.77 4.70588 22.634 4.70588C22.9589 4.70588 23.2226 4.96941 23.2226 5.29412C23.2226 5.61882 22.9589 5.88235 22.634 5.88235C22.3456 5.88235 22.1007 6.09059 22.0525 6.37412C21.8288 7.72 21.4286 10.1212 21.2037 11.4671C21.0613 12.3176 20.3255 12.9412 19.4615 12.9412H9.29631Z" fill="white"/>
</g>
<defs>
<clipPath id="clip0_120_7703">
<rect width="22" height="20" fill="white"/>
</clipPath>
</defs>
</svg>
