<svg width="20" height="20" viewBox="0 0 20 20" fill="none" xmlns="http://www.w3.org/2000/svg">
<path fill-rule="evenodd" clip-rule="evenodd" d="M13.4275 13.4266C12.08 14.7741 10.2875 15.5166 8.38125 15.5166C6.475 15.5166 4.68375 14.7741 3.33625 13.4266C0.55375 10.6441 0.55375 6.11781 3.33625 3.33531C4.7275 1.94406 6.55375 1.24906 8.38125 1.24906C10.2087 1.24906 12.0363 1.94531 13.4275 3.33531C16.21 6.11781 16.21 10.6441 13.4275 13.4266ZM19.68 18.7953L14.7312 13.8466C17.5662 10.5553 17.4312 5.57281 14.3112 2.45156C11.0425 -0.817187 5.72125 -0.817187 2.4525 2.45156C-0.8175 5.72156 -0.8175 11.0416 2.4525 14.3103C4.03625 15.8941 6.14125 16.7666 8.38125 16.7666C10.4112 16.7666 12.3275 16.0441 13.8475 14.7303L18.7962 19.6791C18.9187 19.8016 19.0787 19.8616 19.2375 19.8616C19.3975 19.8616 19.5575 19.8016 19.68 19.6791C19.9237 19.4353 19.9237 19.0391 19.68 18.7953Z" fill="white"/>
</svg>
